# xmcd CD database file
#
# Track frame offsets:
#	150
#	12251
#	26055
#	47344
#	60343
#	75454
#	88546
#	104376
#	120785
#	136223
#	149390
#	165169
#	181590
#	196053
#	210352
#	223685
#	234219
#	246563
#	256545
#
# Disc length: 3583 seconds
#
# Revision: 0
# Processed by: cddbd v1.5.2PL0 Copyright (c) Steve Scherf et al.
# Submitted via: CDex 1.51
#
DISCID=df0dfd13
DTITLE=Cleo Laine - John Dankworth - I Hear Music  -  Disc 1
DYEAR=2007
DGENRE=Jazz
TTITLE0=Good Old Wagon Blues
TTITLE1=Mop Mop
TTITLE2=Second Eleven
TTITLE3=Lightly Politely
TTITLE4=Don't Blame Me
TTITLE5=Easy Living
TTITLE6=The Very Thought of You
TTITLE7=The Very Thought of You
TTITLE8=Lush Life
TTITLE9=Bopscotch
TTITLE10=Leon Bismarck
TTITLE11=The Slider
TTITLE12=I Hear Music
TTITLE13=Strictly Confidential
TTITLE14=Younger Every Day
TTITLE15=Bugle Call Rag
TTITLE16=Perdido
TTITLE17=Indiana
TTITLE18=Memories of You
EXTD=YEAR: 2007
EXTT0=
EXTT1=
EXTT2=
EXTT3=
EXTT4=
EXTT5=
EXTT6=
EXTT7=
EXTT8=
EXTT9=
EXTT10=
EXTT11=
EXTT12=
EXTT13=
EXTT14=
EXTT15=
EXTT16=
EXTT17=
EXTT18=
PLAYORDER=
